<mxfile host="Electron" modified="2024-02-16T04:15:05.877Z" agent="Mozilla/5.0 (X11; Linux x86_64) AppleWebKit/537.36 (KHTML, like Gecko) draw.io/23.0.2 Chrome/120.0.6099.109 Electron/28.1.0 Safari/537.36" etag="txGvPLOJLtg4wMMNMFbH" version="23.0.2" type="device">
  <diagram name="Page-1" id="KPZOitkHoVZ5m0tcAR7y">
    <mxGraphModel dx="1400" dy="844" grid="1" gridSize="10" guides="1" tooltips="1" connect="1" arrows="1" fold="1" page="1" pageScale="1" pageWidth="827" pageHeight="1169" math="0" shadow="0">
      <root>
        <mxCell id="0" />
        <mxCell id="1" parent="0" />
        <mxCell id="t57xYiYV26ULUYU0Rh5v-15" value="" style="rounded=0;whiteSpace=wrap;html=1;fillColor=#fff2cc;strokeColor=#d6b656;" vertex="1" parent="1">
          <mxGeometry x="90" y="60" width="610" height="290" as="geometry" />
        </mxCell>
        <mxCell id="t57xYiYV26ULUYU0Rh5v-9" style="edgeStyle=orthogonalEdgeStyle;rounded=0;orthogonalLoop=1;jettySize=auto;html=1;exitX=0.875;exitY=0.5;exitDx=0;exitDy=0;exitPerimeter=0;entryX=0;entryY=0.5;entryDx=0;entryDy=0;" edge="1" parent="1" source="t57xYiYV26ULUYU0Rh5v-2" target="t57xYiYV26ULUYU0Rh5v-7">
          <mxGeometry relative="1" as="geometry" />
        </mxCell>
        <mxCell id="t57xYiYV26ULUYU0Rh5v-10" style="edgeStyle=orthogonalEdgeStyle;rounded=0;orthogonalLoop=1;jettySize=auto;html=1;exitX=0.875;exitY=0.5;exitDx=0;exitDy=0;exitPerimeter=0;entryX=0.75;entryY=1;entryDx=0;entryDy=0;" edge="1" parent="1" source="t57xYiYV26ULUYU0Rh5v-2" target="t57xYiYV26ULUYU0Rh5v-6">
          <mxGeometry relative="1" as="geometry">
            <Array as="points">
              <mxPoint x="430" y="215" />
              <mxPoint x="430" y="265" />
            </Array>
          </mxGeometry>
        </mxCell>
        <mxCell id="t57xYiYV26ULUYU0Rh5v-2" value="SRAM Address Decoding&lt;br&gt;and Read Logic&lt;br&gt;(Modeled as&lt;br&gt;Combinatorial Logic)" style="ellipse;shape=cloud;whiteSpace=wrap;html=1;" vertex="1" parent="1">
          <mxGeometry x="210" y="110" width="210" height="210" as="geometry" />
        </mxCell>
        <mxCell id="t57xYiYV26ULUYU0Rh5v-3" value="Mandatory&lt;br&gt;Address / Control Logic Input Flops" style="rounded=0;whiteSpace=wrap;html=1;" vertex="1" parent="1">
          <mxGeometry x="110" y="160" width="80" height="130" as="geometry" />
        </mxCell>
        <mxCell id="t57xYiYV26ULUYU0Rh5v-4" value="" style="triangle;whiteSpace=wrap;html=1;direction=south;" vertex="1" parent="1">
          <mxGeometry x="130" y="160" width="40" height="30" as="geometry" />
        </mxCell>
        <mxCell id="t57xYiYV26ULUYU0Rh5v-5" style="edgeStyle=orthogonalEdgeStyle;rounded=0;orthogonalLoop=1;jettySize=auto;html=1;exitX=1;exitY=0.5;exitDx=0;exitDy=0;entryX=0.16;entryY=0.55;entryDx=0;entryDy=0;entryPerimeter=0;" edge="1" parent="1" source="t57xYiYV26ULUYU0Rh5v-3" target="t57xYiYV26ULUYU0Rh5v-2">
          <mxGeometry relative="1" as="geometry" />
        </mxCell>
        <mxCell id="t57xYiYV26ULUYU0Rh5v-6" value="Mux Fixed At FPGA Configuration Time" style="shape=trapezoid;perimeter=trapezoidPerimeter;whiteSpace=wrap;html=1;fixedSize=1;direction=south;" vertex="1" parent="1">
          <mxGeometry x="600" y="160" width="90" height="140" as="geometry" />
        </mxCell>
        <mxCell id="t57xYiYV26ULUYU0Rh5v-11" style="edgeStyle=orthogonalEdgeStyle;rounded=0;orthogonalLoop=1;jettySize=auto;html=1;exitX=1;exitY=0.5;exitDx=0;exitDy=0;entryX=0.25;entryY=1;entryDx=0;entryDy=0;" edge="1" parent="1" source="t57xYiYV26ULUYU0Rh5v-7" target="t57xYiYV26ULUYU0Rh5v-6">
          <mxGeometry relative="1" as="geometry" />
        </mxCell>
        <mxCell id="t57xYiYV26ULUYU0Rh5v-7" value="Optional Data&lt;br&gt;Output Flops" style="rounded=0;whiteSpace=wrap;html=1;" vertex="1" parent="1">
          <mxGeometry x="460" y="110" width="80" height="130" as="geometry" />
        </mxCell>
        <mxCell id="t57xYiYV26ULUYU0Rh5v-8" value="" style="triangle;whiteSpace=wrap;html=1;direction=south;" vertex="1" parent="1">
          <mxGeometry x="480" y="110" width="40" height="30" as="geometry" />
        </mxCell>
        <mxCell id="t57xYiYV26ULUYU0Rh5v-13" style="edgeStyle=orthogonalEdgeStyle;rounded=0;orthogonalLoop=1;jettySize=auto;html=1;entryX=0.16;entryY=0.55;entryDx=0;entryDy=0;entryPerimeter=0;" edge="1" parent="1">
          <mxGeometry relative="1" as="geometry">
            <mxPoint x="80" y="225" as="sourcePoint" />
            <mxPoint x="110" y="225.25" as="targetPoint" />
          </mxGeometry>
        </mxCell>
        <mxCell id="t57xYiYV26ULUYU0Rh5v-14" style="edgeStyle=orthogonalEdgeStyle;rounded=0;orthogonalLoop=1;jettySize=auto;html=1;entryX=0.16;entryY=0.55;entryDx=0;entryDy=0;entryPerimeter=0;" edge="1" parent="1">
          <mxGeometry relative="1" as="geometry">
            <mxPoint x="690" y="229.32999999999998" as="sourcePoint" />
            <mxPoint x="720" y="229.57999999999998" as="targetPoint" />
          </mxGeometry>
        </mxCell>
        <mxCell id="t57xYiYV26ULUYU0Rh5v-17" value="&lt;font style=&quot;font-size: 18px;&quot;&gt;BRAM&lt;/font&gt;" style="text;html=1;strokeColor=none;fillColor=none;align=center;verticalAlign=middle;whiteSpace=wrap;rounded=0;" vertex="1" parent="1">
          <mxGeometry x="90" y="60" width="60" height="30" as="geometry" />
        </mxCell>
      </root>
    </mxGraphModel>
  </diagram>
</mxfile>
